<?xml version="1.0" encoding="UTF-8"?>
<svg width="28px" height="55px" viewBox="0 0 28 55" version="1.1" xmlns="http://www.w3.org/2000/svg" xmlns:xlink="http://www.w3.org/1999/xlink">
    <!-- Generator: Sketch 51.3 (57544) - http://www.bohemiancoding.com/sketch -->
    <title>pfeil rechts</title>
    <desc>Created with Sketch.</desc>
    <defs>
        <polygon id="path-1" points="0 -1.42108547e-14 27.556913 -1.42108547e-14 27.556913 54.7488174 0 54.7488174"></polygon>
    </defs>
    <g id="version-1" stroke="none" stroke-width="1" fill="none" fill-rule="evenodd" opacity="0.800000012">
        <g id="version1-//-startseite-v3" transform="translate(-1487.000000, -423.000000)">
            <g id="CONTENT" transform="translate(390.000000, 150.000000)">
                <g id="Slider">
                    <g id="bildpfeile" transform="translate(14.000000, 273.000000)">
                        <g id="pfeil-rechts" transform="translate(1083.000000, 0.000000)">
                            <mask id="mask-2" fill="white">
                                <use xlink:href="#path-1"></use>
                            </mask>
                            <g id="Clip-2"></g>
                            <path d="M1.91328261,54.7488174 C1.42354348,54.7488174 0.934282609,54.5618174 0.560282609,54.1882957 C-0.18676087,53.4417304 -0.18676087,52.2298174 0.560282609,51.4832522 L23.0677174,28.9762957 C23.4957609,28.5482522 23.7310652,27.9791217 23.7310652,27.3741217 C23.7310652,26.7686435 23.4957609,26.1999913 23.0677174,25.7724261 L0.560282609,3.26546957 C-0.18676087,2.51842609 -0.18676087,1.3069913 0.560282609,0.559947826 C1.30732609,-0.187095652 2.51876087,-0.187095652 3.26580435,0.559947826 L25.7732391,23.0673826 C26.9234565,24.2176 27.5571522,25.7475565 27.5571522,27.3746 C27.5571522,29.0011652 26.9234565,30.5316 25.7732391,31.6818174 L3.26580435,54.1887739 C2.89228261,54.5622957 2.40302174,54.7488174 1.91328261,54.7488174" id="Fill-1" fill="#FFFFFF" mask="url(#mask-2)"></path>
                        </g>
                    </g>
                </g>
            </g>
        </g>
    </g>
</svg>